<svg width="20" height="23" viewBox="0 0 20 23" fill="none" xmlns="http://www.w3.org/2000/svg">
<path d="M19.9962 22.155L18.3242 6.23201C18.3072 6.0712 18.2313 5.92238 18.1111 5.81419C17.9909 5.706 17.8349 5.6461 17.6732 5.64601H14.5302V4.92901C14.5067 3.87047 14.0697 2.86321 13.3127 2.12288C12.5558 1.38256 11.539 0.968018 10.4802 0.968018C9.42142 0.968018 8.4047 1.38256 7.64774 2.12288C6.89078 2.86321 6.45375 3.87047 6.43023 4.92901V5.64601H3.28523C3.12352 5.6461 2.96756 5.706 2.84737 5.81419C2.72718 5.92238 2.65126 6.0712 2.63423 6.23201L0.959228 22.155C0.94968 22.2465 0.959501 22.3389 0.988051 22.4264C1.0166 22.5138 1.06324 22.5942 1.12493 22.6624C1.18663 22.7306 1.26199 22.7851 1.34612 22.8222C1.43025 22.8594 1.52126 22.8784 1.61323 22.878H19.3452C19.4369 22.8779 19.5276 22.8586 19.6114 22.8213C19.6952 22.784 19.7702 22.7295 19.8315 22.6613C19.8929 22.5931 19.9393 22.5129 19.9676 22.4256C19.996 22.3384 20.0058 22.2462 19.9962 22.155ZM7.73823 4.92901C7.73823 4.20192 8.02706 3.50461 8.5412 2.99048C9.05533 2.47635 9.75264 2.18751 10.4797 2.18751C11.2068 2.18751 11.9041 2.47635 12.4183 2.99048C12.9324 3.50461 13.2212 4.20192 13.2212 4.92901V5.64601H7.73823V4.92901ZM2.33823 21.569L3.87523 6.95501H6.42823V8.39801C6.42823 8.57173 6.49724 8.73833 6.62007 8.86117C6.74291 8.984 6.90951 9.05301 7.08323 9.05301C7.25695 9.05301 7.42355 8.984 7.54638 8.86117C7.66922 8.73833 7.73823 8.57173 7.73823 8.39801V6.95501H13.2212V8.39801C13.2212 8.57173 13.2902 8.73833 13.4131 8.86117C13.5359 8.984 13.7025 9.05301 13.8762 9.05301C14.0499 9.05301 14.2165 8.984 14.3394 8.86117C14.4622 8.73833 14.5312 8.57173 14.5312 8.39801V6.95501H17.0842L18.6192 21.569H2.33823Z" fill="#222222"/>
</svg>
