<svg xmlns="http://www.w3.org/2000/svg" xmlns:xlink="http://www.w3.org/1999/xlink" version="1.1" width="1000" height="1000" viewBox="0 0 1000 1000" xml:space="preserve">
<desc>Created with Fabric.js 3.5.0</desc>
<defs>
</defs>
<rect x="0" y="0" width="100%" height="100%" fill="#ffffff"/>
<g transform="matrix(1 0 0 1 500 500)" id="339579">
<g style="" vector-effect="non-scaling-stroke">
		<g transform="matrix(1 0 0 1 -3.5518 11.281)">
<path style="stroke: rgb(0,0,0); stroke-width: 1.5; stroke-dasharray: none; stroke-linecap: round; stroke-dashoffset: 0; stroke-linejoin: round; stroke-miterlimit: 4; is-custom-font: none; font-file-url: none; fill: none; fill-rule: nonzero; opacity: 1;" transform=" translate(-10.9482, -37.281)" d="M 17.5482 35.631 C 17.5482 33.8806 16.8529 32.2019 15.6151 30.9641 C 14.3774 29.7264 12.6986 29.031 10.9482 29.031 C 9.19779 29.031 7.51905 29.7264 6.28131 30.9641 C 5.04357 32.2019 4.34822 33.8806 4.34822 35.631 C 4.34822 43.331 1.04822 45.531 1.04822 45.531 H 20.8482 C 20.8482 45.531 17.5482 43.331 17.5482 35.631 Z" stroke-linecap="round"/>
</g>
		<g transform="matrix(1 0 0 1 -3.5503 24.4835)">
<path style="stroke: rgb(0,0,0); stroke-width: 1.5; stroke-dasharray: none; stroke-linecap: round; stroke-dashoffset: 0; stroke-linejoin: round; stroke-miterlimit: 4; is-custom-font: none; font-file-url: none; fill: none; fill-rule: nonzero; opacity: 1;" transform=" translate(-10.9497, -50.4835)" d="M 12.8532 49.935 C 12.6599 50.2686 12.3823 50.5456 12.0482 50.7381 C 11.7141 50.9306 11.3353 51.032 10.9497 51.032 C 10.5641 51.032 10.1853 50.9306 9.85122 50.7381 C 9.51714 50.5456 9.23953 50.2686 9.0462 49.935" stroke-linecap="round"/>
</g>
		<g transform="matrix(1 0 0 1 8.5002 -3.032)">
<path style="stroke: none; stroke-width: 1; stroke-dasharray: none; stroke-linecap: butt; stroke-dashoffset: 0; stroke-linejoin: miter; stroke-miterlimit: 4; is-custom-font: none; font-file-url: none; fill: rgb(242,176,59); fill-rule: nonzero; opacity: 1;" transform=" translate(-23.0002, -22.968)" d="M 23.0002 28.968 C 26.314 28.968 29.0002 26.2817 29.0002 22.968 C 29.0002 19.6543 26.314 16.968 23.0002 16.968 C 19.6865 16.968 17.0002 19.6543 17.0002 22.968 C 17.0002 26.2817 19.6865 28.968 23.0002 28.968 Z" stroke-linecap="round"/>
</g>
</g>
</g>
<g transform="matrix(39.3354 0 0 39.3354 486.7043 402.1588)" id="563448">
<path style="stroke: rgb(0,0,0); stroke-width: 1.5; stroke-dasharray: none; stroke-linecap: round; stroke-dashoffset: 0; stroke-linejoin: round; stroke-miterlimit: 4; is-custom-font: none; font-file-url: none; fill: none; fill-rule: nonzero; opacity: 1;" transform=" translate(-10.9482, -37.281)" d="M 17.5482 35.631 C 17.5482 33.8806 16.8529 32.2019 15.6151 30.9641 C 14.3774 29.7264 12.6986 29.031 10.9482 29.031 C 9.19779 29.031 7.51905 29.7264 6.28131 30.9641 C 5.04357 32.2019 4.34822 33.8806 4.34822 35.631 C 4.34822 43.331 1.04822 45.531 1.04822 45.531 H 20.8482 C 20.8482 45.531 17.5482 43.331 17.5482 35.631 Z" stroke-linecap="round"/>
</g>
<g transform="matrix(39.3354 0 0 39.3354 486.7628 921.4839)" id="873954">
<path style="stroke: rgb(0,0,0); stroke-width: 1.5; stroke-dasharray: none; stroke-linecap: round; stroke-dashoffset: 0; stroke-linejoin: round; stroke-miterlimit: 4; is-custom-font: none; font-file-url: none; fill: none; fill-rule: nonzero; opacity: 1;" transform=" translate(-10.9497, -50.4835)" d="M 12.8532 49.935 C 12.6599 50.2686 12.3823 50.5456 12.0482 50.7381 C 11.7141 50.9306 11.3353 51.032 10.9497 51.032 C 10.5641 51.032 10.1853 50.9306 9.85122 50.7381 C 9.51714 50.5456 9.23953 50.2686 9.0462 49.935" stroke-linecap="round"/>
</g>
</svg>