<svg width="13" height="22" viewBox="0 0 13 22" fill="none" xmlns="http://www.w3.org/2000/svg">
<path d="M3.97003 10.9673L11.912 3.0313C12.1929 2.7495 12.3503 2.36768 12.3497 1.96982C12.349 1.57196 12.1903 1.19066 11.9085 0.909797C11.6267 0.628933 11.2449 0.471514 10.8471 0.47217C10.4492 0.472826 10.0679 0.631504 9.78703 0.913297L0.78703 9.9053C0.515672 10.1785 0.359757 10.5455 0.351567 10.9305C0.343376 11.3155 0.483536 11.6888 0.743029 11.9733L9.77903 21.0273C9.91663 21.1731 10.0821 21.2899 10.2656 21.3706C10.4491 21.4514 10.6469 21.4946 10.8474 21.4976C11.0478 21.5007 11.2469 21.4635 11.4327 21.3882C11.6186 21.313 11.7874 21.2013 11.9294 21.0597C12.0713 20.9181 12.1834 20.7495 12.2591 20.5638C12.3347 20.3782 12.3724 20.1792 12.3698 19.9787C12.3673 19.7783 12.3246 19.5803 12.2442 19.3966C12.1639 19.213 12.0475 19.0472 11.902 18.9093L3.97003 10.9673Z" fill="#4A4B4D"/>
</svg>
