<svg width="23" height="23" viewBox="0 0 23 23" fill="none" xmlns="http://www.w3.org/2000/svg">
<path d="M2.76827 3.73336C4.08937 2.41279 5.77234 1.51355 7.60443 1.14933C9.43652 0.785106 11.3355 0.972248 13.0612 1.6871C14.7869 2.40195 16.262 3.61241 17.2999 5.16546C18.3378 6.71851 18.8919 8.54442 18.8923 10.4124C18.8986 12.6956 18.0716 14.9026 16.5663 16.6194L21.8123 21.8664C21.8741 21.9258 21.9234 21.997 21.9573 22.0757C21.9913 22.1545 22.0092 22.2392 22.01 22.3249C22.0108 22.4107 21.9945 22.4957 21.9621 22.5751C21.9297 22.6544 21.8817 22.7266 21.8211 22.7872C21.7605 22.8478 21.6884 22.8958 21.609 22.9282C21.5296 22.9606 21.4446 22.9769 21.3588 22.9761C21.2731 22.9753 21.1884 22.9573 21.1096 22.9234C21.0309 22.8894 20.9597 22.8401 20.9003 22.7784L15.6543 17.5324C14.2875 18.7241 12.6066 19.4973 10.8123 19.7595C9.01796 20.0218 7.18608 19.762 5.53542 19.0112C3.88476 18.2604 2.48509 17.0504 1.50358 15.5256C0.522061 14.0008 0.000183976 12.2257 0.000274953 10.4124C-0.00290512 9.17135 0.240103 7.94204 0.715232 6.79559C1.19036 5.64913 1.88817 4.60831 2.76827 3.73336ZM3.68027 16.1784C4.82054 17.3175 6.27292 18.093 7.85384 18.4068C9.43475 18.7207 11.0732 18.5588 12.5622 17.9416C14.0511 17.3245 15.3236 16.2797 16.2189 14.9395C17.1142 13.5992 17.592 12.0236 17.592 10.4119C17.592 8.80009 17.1142 7.2245 16.2189 5.88425C15.3236 4.544 14.0511 3.49927 12.5622 2.8821C11.0732 2.26493 9.43475 2.10304 7.85384 2.41689C6.27292 2.73074 4.82054 3.50624 3.68027 4.64536C2.15309 6.17589 1.29541 8.24973 1.29541 10.4119C1.29541 12.574 2.15309 14.6478 3.68027 16.1784Z" fill="#222222"/>
</svg>
