<svg width="13" height="22" viewBox="0 0 13 22" fill="none" xmlns="http://www.w3.org/2000/svg">
<path d="M9.02997 11.065L1.08797 3.12895C0.9489 2.98942 0.838675 2.82387 0.763586 2.64174C0.688498 2.45961 0.650018 2.26448 0.650343 2.06748C0.650668 1.87048 0.689792 1.67547 0.76548 1.49359C0.841169 1.31171 0.951941 1.14652 1.09147 1.00745C1.231 0.868383 1.39656 0.758158 1.57868 0.683069C1.76081 0.607981 1.95595 0.569501 2.15294 0.569826C2.34994 0.570151 2.54495 0.609275 2.72683 0.684963C2.90871 0.760652 3.0739 0.871424 3.21297 1.01095L12.213 10.003C12.4843 10.2761 12.6402 10.6432 12.6484 11.0282C12.6566 11.4131 12.5165 11.7865 12.257 12.071L3.22097 21.125C3.0828 21.2684 2.91744 21.3829 2.73455 21.4618C2.55166 21.5406 2.3549 21.5823 2.15574 21.5843C1.95658 21.5863 1.75901 21.5486 1.57457 21.4734C1.39013 21.3983 1.2225 21.2871 1.08147 21.1465C0.940433 21.0059 0.82882 20.8386 0.753138 20.6543C0.677456 20.4701 0.639221 20.2726 0.640664 20.0735C0.642108 19.8743 0.6832 19.6774 0.761544 19.4943C0.839887 19.3112 0.953914 19.1455 1.09697 19.007L9.02997 11.065Z" fill="#4A4B4D"/>
</svg>
