<svg width="22" height="17" viewBox="0 0 22 17" fill="none" xmlns="http://www.w3.org/2000/svg">
<path d="M0.892029 14.8769C2.71519 16.0475 4.82565 16.6931 6.99169 16.7429C9.15774 16.7927 11.2956 16.2446 13.1706 15.159C15.0456 14.0734 16.5853 12.4922 17.6205 10.5889C18.6557 8.68558 19.1465 6.53384 19.039 4.36989C19.8515 3.78089 20.5522 3.05143 21.108 2.2159C20.3514 2.55252 19.5484 2.77332 18.726 2.8709C19.5927 2.35088 20.2406 1.5334 20.549 0.570893C19.7353 1.05518 18.8448 1.39676 17.916 1.58089C17.2902 0.912456 16.461 0.469703 15.5574 0.321549C14.6538 0.173395 13.7266 0.328157 12.9201 0.76175C12.1136 1.19534 11.4732 1.88343 11.0984 2.71887C10.7236 3.55431 10.6356 4.49022 10.848 5.38089C9.1976 5.2977 7.58324 4.86758 6.11021 4.11858C4.63718 3.36957 3.33856 2.31849 2.29903 1.03389C1.76844 1.94986 1.60579 3.03325 1.844 4.06465C2.08222 5.09605 2.7035 5.99838 3.58203 6.5889C2.92306 6.56789 2.27873 6.38923 1.70303 6.0679C1.6903 7.03624 2.01555 7.97871 2.62281 8.73308C3.23007 9.48745 4.08132 10.0065 5.03003 10.2009C4.41957 10.367 3.77918 10.3909 3.15803 10.2709C3.42118 11.0968 3.93627 11.8196 4.63104 12.3379C5.32581 12.8562 6.1654 13.144 7.03203 13.1609C6.1716 13.8364 5.18643 14.3357 4.13287 14.6302C3.0793 14.9246 1.97802 15.0085 0.892029 14.8769Z" fill="white"/>
</svg>
