<svg xmlns="http://www.w3.org/2000/svg" xmlns:xlink="http://www.w3.org/1999/xlink" version="1.1" width="1000" height="1000" viewBox="0 0 1000 1000" xml:space="preserve">
<desc>Created with Fabric.js 3.5.0</desc>
<defs>
</defs>
<rect x="0" y="0" width="100%" height="100%" fill="#ffffff"/>
<g transform="matrix(48.5401 0 0 48.5401 499.9995 737.4098)" id="566359">
<path style="stroke: none; stroke-width: 1; stroke-dasharray: none; stroke-linecap: butt; stroke-dashoffset: 0; stroke-linejoin: miter; stroke-miterlimit: 4; is-custom-font: none; font-file-url: none; fill: rgb(34,34,34); fill-rule: nonzero; opacity: 1;" vector-effect="non-scaling-stroke" transform=" translate(-10.3517, -5.8814)" d="M 19.7123 6.44504 V 6.43503 C 19.7123 6.39903 19.7123 6.36204 19.7123 6.32104 C 19.6853 5.42104 19.6253 3.31004 17.6483 2.63504 L 17.6023 2.62103 C 16.2586 2.25106 14.9824 1.66982 13.8213 0.899047 C 13.7552 0.851092 13.6803 0.816735 13.6009 0.798034 C 13.5214 0.779332 13.439 0.77664 13.3585 0.790099 C 13.278 0.803559 13.201 0.832906 13.132 0.876434 C 13.0629 0.919962 13.0032 0.976808 12.9564 1.04364 C 12.9095 1.11047 12.8764 1.18597 12.8591 1.26572 C 12.8417 1.34546 12.8403 1.42788 12.8551 1.50815 C 12.8699 1.58842 12.9005 1.66493 12.9452 1.73325 C 12.9899 1.80156 13.0477 1.86029 13.1153 1.90604 C 14.3898 2.76006 15.7943 3.40172 17.2743 3.80603 C 18.3363 4.18403 18.4543 5.31902 18.4863 6.35702 C 18.4839 6.39499 18.4839 6.43307 18.4863 6.47104 C 18.4931 6.94236 18.4597 7.4134 18.3863 7.87903 C 15.9062 9.16063 13.1454 9.80273 10.3543 9.74704 C 7.56192 9.79812 4.8006 9.15486 2.31828 7.87503 C 2.24262 7.40966 2.20915 6.93843 2.21828 6.46704 C 2.21828 6.43104 2.21828 6.39403 2.21828 6.35303 C 2.25028 5.31403 2.36828 4.18003 3.43028 3.80203 C 4.90942 3.39553 6.31365 2.75403 7.58928 1.90204 C 7.71984 1.80724 7.80792 1.66493 7.83452 1.5058 C 7.86113 1.34666 7.82413 1.18344 7.73151 1.05133 C 7.63889 0.91922 7.49806 0.828798 7.33939 0.79956 C 7.18071 0.770322 7.01691 0.804598 6.88328 0.895019 C 5.72341 1.668 4.44678 2.24944 3.10228 2.61703 L 3.05628 2.63104 C 1.07928 3.31004 1.02028 5.41905 0.992279 6.31705 C 0.994649 6.35501 0.994649 6.39307 0.992279 6.43103 V 6.44504 C 0.966335 7.14075 1.04453 7.83644 1.22428 8.50903 C 1.26993 8.62795 1.35314 8.72871 1.46128 8.79602 C 4.17498 10.3107 7.24778 11.0632 10.3543 10.974 C 13.4605 11.0606 16.5326 10.3082 19.2473 8.79602 C 19.3542 8.72738 19.4371 8.62705 19.4843 8.50903 C 19.6578 7.83534 19.7346 7.14037 19.7123 6.44504 Z" stroke-linecap="round"/>
</g>
<g transform="matrix(43.223 0 0 43.223 500.0001 256.7037)" id="910501">
<path style="stroke: none; stroke-width: 1; stroke-dasharray: none; stroke-linecap: butt; stroke-dashoffset: 0; stroke-linejoin: miter; stroke-miterlimit: 4; is-custom-font: none; font-file-url: none; fill: rgb(34,34,34); fill-rule: nonzero; opacity: 1;" vector-effect="non-scaling-stroke" transform=" translate(-5.3526, -6.8955)" d="M 5.2773 12.822 H 5.42329 C 6.02714 12.8349 6.62666 12.7174 7.18097 12.4775 C 7.73528 12.2377 8.23134 11.8811 8.6353 11.432 C 10.3893 9.45504 10.0973 6.06504 10.0663 5.74204 C 10.0969 4.91928 9.9084 4.10316 9.52009 3.37716 C 9.13179 2.65116 8.55761 2.04132 7.85629 1.61004 C 7.10658 1.19168 6.26283 0.970764 5.40429 0.968035 H 5.3273 C 4.47072 0.965772 3.62751 1.18044 2.8763 1.59204 C 2.16745 2.02168 1.58631 2.63295 1.19301 3.36259 C 0.799706 4.09223 0.608539 4.91372 0.639296 5.74204 C 0.607296 6.06504 0.316295 9.45504 2.0703 11.432 C 2.47315 11.8811 2.9683 12.2378 3.52182 12.4777 C 4.07534 12.7176 4.67416 12.8351 5.2773 12.822 Z M 1.85629 5.85604 C 1.85629 5.84204 1.85629 5.82904 1.85629 5.82004 C 2.00629 2.55304 4.3253 2.20304 5.3183 2.20304 H 5.37329 C 6.60329 2.23004 8.69429 2.73104 8.83529 5.82004 C 8.83284 5.83191 8.83284 5.84416 8.83529 5.85604 C 8.83529 5.88804 9.15829 8.98604 7.71029 10.617 C 7.41501 10.9421 7.05167 11.198 6.64616 11.3665 C 6.24066 11.535 5.80296 11.612 5.36429 11.592 H 5.3183 C 4.8802 11.6121 4.44308 11.5351 4.03821 11.3666 C 3.63333 11.198 3.2707 10.9421 2.97629 10.617 C 1.54129 8.99504 1.8513 5.88404 1.8553 5.85604 H 1.85629 Z" stroke-linecap="round"/>
</g>
</svg>